<?xml version="1.0" encoding="UTF-8"?>
<svg width="1200pt" height="1200pt" version="1.1" viewBox="0 0 1200 1200" xmlns="http://www.w3.org/2000/svg">
 <path d="m907.29 769.61c64.895-114.86 105.21-249.32 105.21-350.87 0-213.77-181.2-381.24-412.5-381.24s-412.5 167.48-412.5 381.24c0 101.55 40.312 236.01 105.21 350.87 11.664 20.625 26.867 42.336 42.992 65.289 34.012 48.523 71.867 103.12 75.992 150.52l0.003906 0.003906c-14.41 10.195-22.836 26.863-22.5 44.512 0.050782 12.676 4.4297 24.953 12.41 34.801-11.105 10.945-17.32 25.918-17.23 41.512 0 14.918 5.9258 29.227 16.477 39.773 10.547 10.551 24.855 16.477 39.773 16.477h318.75c15.117-0.09375 29.57-6.2305 40.137-17.043 10.566-10.812 16.367-25.402 16.113-40.52-0.015625-15.25-6.2422-29.832-17.25-40.387 8.0742-10.238 12.461-22.902 12.449-35.945 0.16406-17.262-8.2695-33.48-22.5-43.254 4.1641-47.477 42-101.96 75.992-150.45 16.109-23.027 31.316-44.664 42.977-65.289zm-147.92 355.39h-318.75c-5.1758-0.085938-10.098-2.2695-13.633-6.0508-3.5352-3.7852-5.3828-8.8398-5.1172-14.012 0-4.9727 1.9766-9.7422 5.4922-13.258 3.5156-3.5156 8.2852-5.4922 13.258-5.4922h318.75c5.1758 0.085938 10.098 2.2695 13.633 6.0508 3.5352 3.7852 5.3828 8.8398 5.1172 14.012 0 4.9727-1.9766 9.7422-5.4922 13.258-3.5156 3.5156-8.2852 5.4922-13.258 5.4922zm-332.7-96.395c0.18359-4.6836 2.3086-9.082 5.8672-12.137 3.5547-3.0547 8.2227-4.4922 12.883-3.9688h309.15c4.8672-0.44922 9.6953 1.1953 13.277 4.5273 3.5781 3.3281 5.5703 8.0234 5.4727 12.91 0 4.9727-1.9766 9.7422-5.4922 13.258-3.5156 3.5156-8.2852 5.4922-13.258 5.4922h-309.15c-5.1797-0.089844-10.102-2.2773-13.633-6.0625-3.5352-3.7891-5.3828-8.8477-5.1172-14.02zm324.66-53.605h-302.66c-7.668-55.238-47.082-111.43-82.273-161.62-15.562-22.199-30.262-43.125-41.023-62.211-60.996-107.91-100.37-238.39-100.37-332.42 0-192.75 164.72-343.74 375-343.74s375 150.99 375 343.74c0 94.031-39.375 224.51-100.37 332.42-10.762 19.051-25.461 40.012-41.023 62.211-35.195 50.199-74.609 106.39-82.277 161.63z"/>
 <path d="m600 187.5c-19.891 0-38.969 7.9023-53.031 21.969-14.066 14.062-21.969 33.141-21.969 53.031s7.9023 38.969 21.969 53.031c14.062 14.066 33.141 21.969 53.031 21.969s38.969-7.9023 53.031-21.969c14.066-14.062 21.969-33.141 21.969-53.031s-7.9023-38.969-21.969-53.031c-14.062-14.066-33.141-21.969-53.031-21.969zm0 112.5c-9.9453 0-19.484-3.9492-26.516-10.984-7.0352-7.0312-10.984-16.57-10.984-26.516s3.9492-19.484 10.984-26.516c7.0312-7.0352 16.57-10.984 26.516-10.984s19.484 3.9492 26.516 10.984c7.0352 7.0312 10.984 16.57 10.984 26.516s-3.9492 19.484-10.984 26.516c-7.0312 7.0352-16.57 10.984-26.516 10.984z"/>
 <path d="m637.5 375h-75c-4.8164-0.007812-9.4453 1.8398-12.938 5.1562s-5.5703 7.8477-5.8125 12.656l-18.75 375c-0.25781 5.1328 1.6055 10.148 5.1484 13.867 3.5469 3.7227 8.4609 5.8281 13.602 5.8203h112.5c5.1406 0.007812 10.055-2.0977 13.602-5.8203 3.543-3.7188 5.4062-8.7344 5.1484-13.867l-18.75-375c-0.24219-4.8086-2.3203-9.3398-5.8125-12.656s-8.1211-5.1641-12.938-5.1562zm-74.043 375 16.875-337.5h39.375l16.875 337.5z"/>
 <path d="m1068.8 412.5h75v37.5h-75z"/>
 <path d="m56.25 412.5h75v37.5h-75z"/>
 <path d="m964.96 800.75 26.516-26.52 53.039 53.027-26.516 26.52z"/>
 <path d="m202.25 60.016 26.516-26.516 53.031 53.031-26.516 26.516z"/>
 <path d="m933.73 96.023 53.031-53.031 26.516 26.516-53.031 53.031z"/>
 <path d="m158.72 830.49 53.039-53.027 26.516 26.52-53.039 53.027z"/>
</svg>
