<?xml version="1.0" encoding="UTF-8"?>
<svg width="1200pt" height="1200pt" version="1.1" viewBox="0 0 1200 1200" xmlns="http://www.w3.org/2000/svg">
 <path d="m337.5 243.74h93.75c10.359 0 18.75-8.3906 18.75-18.75 0-10.359-8.3906-18.75-18.75-18.75h-93.75c-10.359 0-18.75 8.3906-18.75 18.75 0 10.359 8.3906 18.75 18.75 18.75z"/>
 <path d="m534.37 243.74c10.359 0 18.75-8.3906 18.75-18.75 0-10.359-8.3906-18.75-18.75-18.75h-37.5c-10.359 0-18.75 8.3906-18.75 18.75 0 10.359 8.3906 18.75 18.75 18.75z"/>
 <path d="m337.5 496.87h93.75c10.359 0 18.75-8.3906 18.75-18.75s-8.3906-18.75-18.75-18.75h-93.75c-10.359 0-18.75 8.3906-18.75 18.75s8.3906 18.75 18.75 18.75z"/>
 <path d="m496.87 459.37c-10.359 0-18.75 8.3906-18.75 18.75s8.3906 18.75 18.75 18.75h37.5c10.359 0 18.75-8.3906 18.75-18.75s-8.3906-18.75-18.75-18.75z"/>
 <path d="m337.5 323.44h281.26c10.359 0 18.75-8.3906 18.75-18.75s-8.3906-18.75-18.75-18.75h-281.26c-10.359 0-18.75 8.3906-18.75 18.75s8.3906 18.75 18.75 18.75z"/>
 <path d="m337.5 417.19h281.26c10.359 0 18.75-8.3906 18.75-18.75s-8.3906-18.75-18.75-18.75h-281.26c-10.359 0-18.75 8.3906-18.75 18.75s8.3906 18.75 18.75 18.75z"/>
 <path d="m862.5 890.63h-168.74c-10.359 0-18.75 8.3906-18.75 18.75s8.3906 18.75 18.75 18.75h168.74c10.359 0 18.75-8.3906 18.75-18.75s-8.3906-18.75-18.75-18.75z"/>
 <path d="m778.13 1003.1c10.359 0 18.75-8.3906 18.75-18.75s-8.3906-18.75-18.75-18.75h-75c-10.359 0-18.75 8.3906-18.75 18.75s8.3906 18.75 18.75 18.75z"/>
 <path d="m871.87 965.63h-28.125c-10.359 0-18.75 8.3906-18.75 18.75s8.3906 18.75 18.75 18.75h28.125c10.359 0 18.75-8.3906 18.75-18.75s-8.3906-18.75-18.75-18.75z"/>
 <path d="m131.26 1050v-112.5c0-4.9688-1.9688-9.75-5.4844-13.266-3.5156-3.5156-8.2969-5.4844-13.266-5.4844h-93.75c-10.359 0-18.75 8.3906-18.75 18.75v112.5c0 4.9688 1.9687 9.75 5.4844 13.266 3.5156 3.5156 8.2969 5.4844 13.266 5.4844h93.75c4.9688 0 9.75-1.9688 13.266-5.4844 3.5156-3.5156 5.4844-8.2969 5.4844-13.266zm-37.5-18.75h-56.25v-75h56.25z"/>
 <path d="m187.5 825c-10.359 0-18.75 8.3906-18.75 18.75v206.26c0 4.9688 1.9688 9.75 5.4844 13.266 3.5156 3.5156 8.2969 5.4844 13.266 5.4844h93.75c4.9688 0 9.75-1.9688 13.266-5.4844 3.5156-3.5156 5.4844-8.2969 5.4844-13.266v-206.26c0-4.9688-1.9688-9.75-5.4844-13.266s-8.2969-5.4844-13.266-5.4844zm75 206.26h-56.25v-168.74h56.25z"/>
 <path d="m337.5 750v300c0 4.9688 1.9688 9.75 5.4844 13.266s8.2969 5.4844 13.266 5.4844h93.75c4.9688 0 9.75-1.9688 13.266-5.4844s5.4844-8.2969 5.4844-13.266v-300c0-4.9688-1.9688-9.75-5.4844-13.266s-8.2969-5.4844-13.266-5.4844h-93.75c-10.359 0-18.75 8.3906-18.75 18.75zm37.5 18.75h56.25v262.5h-56.25z"/>
 <path d="m51.562 846.56c6.75 7.6875 18.469 8.5312 26.25 1.875l116.25-98.438 25.312 30.938c3.2812 3.8906 8.0625 6.2344 13.125 6.5625 5.25 0.09375 10.312-1.9688 14.062-5.625l135.94-135v7.5c0 10.359 8.3906 18.75 18.75 18.75s18.75-8.3906 18.75-18.75v-52.5c0-4.9688-1.9688-9.75-5.4844-13.266s-8.2969-5.4844-13.266-5.4844h-52.5c-10.359 0-18.75 8.3906-18.75 18.75s8.3906 18.75 18.75 18.75h7.5l-120.94 120-24.375-29.062c-6.5156-7.9688-18.188-9.2344-26.25-2.8125l-131.26 111.56c-7.6875 6.75-8.5312 18.469-1.875 26.25z"/>
 <path d="m989.06 447.19v-71.25c-0.09375-16.406-8.5781-31.641-22.5-40.312l-220.31-196.87-1.875 1.875c-9.1406-11.953-23.391-18.891-38.438-18.75h-439.69c-29.344-0.5625-53.812 22.266-55.312 51.562v495.94c10.406 2.625 19.828 8.1562 27.188 15.938l10.312-10.312v-501.56c1.4062-8.5781 9.1406-14.672 17.812-14.062h439.69c4.875-0.5625 9.375 2.6719 10.312 7.5v152.81c0.98438 25.312 21.562 45.469 46.875 45.938h182.81l1.875 1.875c2.5312 1.7344 4.2188 4.4531 4.6875 7.5v56.25c12.609 4.2188 24.844 9.5625 36.562 15.938zm-226.87-119.06c-5.3438 0-9.8438-4.0312-10.312-9.375v-122.81l150 133.13z"/>
 <path d="m989.06 1032.2v-180.94c-12 6.4219-24.562 11.766-37.5 15.938v165c-0.23438 2.4844-1.4531 4.7812-3.375 6.375-1.9688 1.5938-4.4531 2.3438-6.9375 2.0625h-435v9.375c0 9.8906-2.5781 19.594-7.5 28.125h442.5c12.422 0.23438 24.469-4.4531 33.422-13.078 8.9531-8.5781 14.156-20.438 14.391-32.859z"/>
 <path d="m693.74 815.63c-10.359 0-18.75 8.3906-18.75 18.75s8.3906 18.75 18.75 18.75h88.125c-19.5-9.8906-37.5-22.5-53.438-37.5z"/>
 <path d="m1177.5 817.5-123.74-80.625c14.109-26.906 21.516-56.812 21.562-87.188 0.42188-57.656-25.219-112.41-69.75-149.02s-103.17-51.234-159.66-39.703c-56.484 11.484-104.81 47.859-131.44 99s-28.828 111.52-5.9062 164.44c22.922 52.875 68.484 92.625 124.03 108.14 55.5 15.516 115.08 5.1562 162.1-28.172l95.625 105.94 2.8125 2.8125c13.453 9.5156 29.484 14.766 45.938 15 15.562 0.09375 30.562-5.5781 42.188-15.938h0.9375c24.047-25.312 23.625-65.156-0.9375-90zm-446.26-167.81c-0.09375-48.188 22.547-93.609 61.078-122.53 38.578-28.922 88.5-37.969 134.76-24.422 46.219 13.594 83.344 48.188 100.17 93.328 16.828 45.188 11.344 95.625-14.766 136.13l-28.125 32.812c-45.188 39.328-109.17 48.609-163.64 23.766-54.516-24.797-89.484-79.172-89.484-139.08zm424.69 234.37c-15.938 13.125-33.75 2.8125-39.375-0.9375l-93.75-104.06 10.312-12.188 121.87 79.688c14.062 18.75 5.625 32.812 0.9375 37.5z"/>
</svg>
