<?xml version="1.0" encoding="UTF-8"?>
<svg width="1200pt" height="1200pt" version="1.1" viewBox="0 0 1200 1200" xmlns="http://www.w3.org/2000/svg">
 <path d="m120 54.547c-17.941 0-32.727 14.785-32.727 32.727v65.453c0 17.941 14.785 32.727 32.727 32.727h65.453c17.941 0 32.727-14.785 32.727-32.727v-65.453c0-17.941-14.785-32.727-32.727-32.727zm894.55 0c-17.941 0-32.727 14.785-32.727 32.727v65.453c0 17.941 14.785 32.727 32.727 32.727h65.453c17.941 0 32.727-14.785 32.727-32.727v-65.453c0-17.941-14.785-32.727-32.727-32.727zm-894.55 21.816h65.453c6.2305 0 10.91 4.6758 10.91 10.91v65.453c0 6.2305-4.6758 10.91-10.91 10.91h-65.453c-6.2305 0-10.91-4.6758-10.91-10.91v-65.453c0-6.2305 4.6758-10.91 10.91-10.91zm894.55 0h65.453c6.2305 0 10.91 4.6758 10.91 10.91v65.453c0 6.2305-4.6758 10.91-10.91 10.91h-65.453c-6.2305 0-10.91-4.6758-10.91-10.91v-65.453c0-6.2305 4.6758-10.91 10.91-10.91zm-763.64 87.273c-6.0273 0-10.91 4.8828-10.91 10.91 0 2.8906 1.1484 5.668 3.1953 7.7109 2.0469 2.0469 4.8203 3.1953 7.7148 3.1953 135.34 0 248.3 94.559 276.69 221.27-20.074 1.7383-38.863 4.1641-55.973 7.2227-23.523-75.434-93.984-130.31-177.08-130.31-6.0234 0-10.91 4.8867-10.91 10.91 0 2.8945 1.1484 5.668 3.1953 7.7148 2.0469 2.043 4.8203 3.1953 7.7148 3.1953 72.773 0 134.28 47.305 155.61 112.89-2.3477 0.53906-4.8125 1.0312-7.0742 1.5977-20.375 5.0938-37.125 11.125-49.664 18.535-12.539 7.4102-22.5 17.191-22.5 30.617v207.27c0 13.426 9.9609 23.207 22.5 30.617 12.539 7.4102 29.289 13.441 49.664 18.535 40.75 10.188 95.938 16.301 156.93 16.301 60.988 0 116.17-6.1133 156.93-16.301 20.375-5.0938 37.125-11.125 49.664-18.535s22.5-17.191 22.5-30.617v-207.27c0-13.426-9.9609-23.207-22.5-30.617-12.539-7.4102-29.289-13.441-49.664-18.535-2.2617-0.56641-4.7266-1.0586-7.0742-1.5977 21.32-65.582 82.828-112.89 155.61-112.89h0.007812c2.8906 0 5.668-1.1523 7.7148-3.1953 2.043-2.0469 3.1914-4.8203 3.1914-7.7148s-1.1484-5.668-3.1914-7.7148c-2.0469-2.0469-4.8242-3.1953-7.7148-3.1953-83.098 0-153.55 54.879-177.08 130.31-17.113-3.0586-35.902-5.4844-55.973-7.2227 28.387-126.71 141.35-221.27 276.69-221.27 2.8945 0 5.668-1.1484 7.7148-3.1953 2.043-2.043 3.1953-4.8203 3.1953-7.7109 0-2.8945-1.1523-5.668-3.1953-7.7148-2.0469-2.0469-4.8203-3.1953-7.7148-3.1953-146.63 0-269.2 103.59-298.66 241.5-16.234-0.94531-33.059-1.4922-50.434-1.4922s-34.199 0.54688-50.434 1.4922c-29.449-137.9-152.03-241.5-298.66-241.5zm-87.273 120c-17.941 0-32.727 14.785-32.727 32.727v65.453c0 17.941 14.785 32.727 32.727 32.727h65.453c17.941 0 32.727-14.785 32.727-32.727v-65.453c0-17.941-14.785-32.727-32.727-32.727zm807.27 0c-17.945 0-32.727 14.781-32.727 32.727v65.453c0 17.945 14.781 32.727 32.727 32.727h65.453c17.941 0 32.727-14.781 32.727-32.727v-65.453c0-17.945-14.785-32.727-32.727-32.727zm-807.27 21.816h65.453c6.2305 0 10.91 4.6758 10.91 10.91v65.453c0 6.2305-4.6758 10.91-10.91 10.91h-65.453c-6.2305 0-10.91-4.6758-10.91-10.91v-65.453c0-6.2305 4.6758-10.91 10.91-10.91zm807.27 0h65.453c6.1562 0 10.91 4.7539 10.91 10.91v65.453c0 6.1562-4.7539 10.91-10.91 10.91h-65.453c-6.1562 0-10.91-4.7539-10.91-10.91v-65.453c0-6.1562 4.7539-10.91 10.91-10.91zm-370.91 120c16.031 0 31.598 0.48828 46.617 1.3203-1.9219 13.84-2.9844 27.953-2.9844 42.316h0.003907c0 2.8945 1.1484 5.668 3.1953 7.7148 2.0469 2.0469 4.8203 3.1953 7.7148 3.1953 2.8906 0 5.668-1.1484 7.7109-3.1953 2.0469-2.0469 3.1953-4.8203 3.1953-7.7148 0-13.859 1.0469-27.477 2.9609-40.801 19.742 1.6602 38.152 4 54.738 6.9023-2.0391 11-3.1523 22.316-3.1523 33.898 0 2.8945 1.1484 5.668 3.1953 7.7148 2.0469 2.0469 4.8203 3.1953 7.7148 3.1953 2.8906 0 5.668-1.1484 7.7109-3.1953 2.0469-2.0469 3.1953-4.8203 3.1953-7.7148 0-10.109 0.95703-19.996 2.707-29.594 2.3672 0.53906 4.8555 1.0547 7.1172 1.6211 19.109 4.7773 34.309 10.488 43.848 16.129 9.543 5.6406 11.781 10.211 11.781 11.848s-2.2422 6.207-11.781 11.848c-9.543 5.6406-24.742 11.352-43.848 16.129-38.215 9.5547-92.129 15.66-151.64 15.66-59.508 0-113.42-6.1055-151.64-15.66-19.109-4.7773-34.309-10.488-43.848-16.129-9.543-5.6406-11.781-10.211-11.781-11.848s2.2422-6.207 11.781-11.848c9.543-5.6406 24.742-11.352 43.848-16.129 2.2617-0.56641 4.75-1.0781 7.1172-1.6211 1.7461 9.6016 2.707 19.484 2.707 29.594 0 2.8945 1.1484 5.668 3.1953 7.7148 2.043 2.0469 4.8203 3.1953 7.7109 3.1953 2.8945 0 5.668-1.1484 7.7148-3.1953 2.0469-2.0469 3.1953-4.8203 3.1953-7.7148 0-11.586-1.1133-22.898-3.1523-33.898 16.586-2.9023 34.996-5.2422 54.738-6.9023 1.918 13.328 2.9609 26.941 2.9609 40.801 0 2.8945 1.1484 5.668 3.1953 7.7148 2.0469 2.0469 4.8203 3.1953 7.7148 3.1953 2.8906 0 5.668-1.1484 7.7109-3.1953 2.0469-2.0469 3.1953-4.8203 3.1953-7.7148 0-14.363-1.0586-28.477-2.9844-42.316 15.02-0.83594 30.59-1.3203 46.617-1.3203zm-207.27 73.828c0.23047 0.14062 0.44922 0.28906 0.68359 0.42578 12.539 7.4102 29.289 13.441 49.664 18.535 40.75 10.188 95.938 16.301 156.93 16.301s116.17-6.1133 156.93-16.301c20.375-5.0938 37.125-11.125 49.664-18.535 0.23438-0.13672 0.44922-0.28516 0.68359-0.42578v177.08c0 1.6367-2.2422 6.207-11.781 11.848-9.543 5.6406-24.742 11.352-43.848 16.129-38.215 9.5547-92.129 15.66-151.64 15.66-59.508 0-113.42-6.1055-151.64-15.66-19.109-4.7773-34.309-10.488-43.848-16.129-9.543-5.6406-11.781-10.211-11.781-11.848v-177.08zm207.27 264.35v0.003906c-6.0234 0-10.91 4.8828-10.91 10.91v76.363l-26.188-19.645 0.003906-0.003907c-2.3164-1.7344-5.2305-2.4766-8.0938-2.0664-2.8672 0.41016-5.4492 1.9453-7.1836 4.2617-1.7383 2.3164-2.4805 5.2305-2.0703 8.0938 0.41406 2.8672 1.9453 5.4492 4.2617 7.1836l43.637 32.727c0.23047 0.15234 0.46484 0.29297 0.70312 0.42578 0.16797 0.11328 0.33984 0.21875 0.51172 0.32031 0.21875 0.12109 0.4375 0.23438 0.66016 0.34375 0.39844 0.17969 0.80078 0.33594 1.2148 0.46875 0.085937 0.035156 0.17188 0.070313 0.25781 0.10547 0.11719 0.050781 0.23828 0.10156 0.35937 0.14844 0.03125 0.007813 0.058594 0.015625 0.085938 0.019531 0.078125 0.011719 0.15625 0.015626 0.23438 0.023438 0.023437 0.007812 0.042969 0.015625 0.066406 0.019531 0.42578 0.089844 0.86328 0.15625 1.2969 0.19141 0.33984 0.046874 0.68359 0.074218 1.0234 0.085937 0.042968 0.007813 0.085937 0.015625 0.12891 0.023437 0.042969-0.007812 0.085938-0.015624 0.12891-0.023437 0.35547-0.015625 0.71094-0.050781 1.0625-0.10547 0.41797-0.03125 0.82812-0.089844 1.2383-0.17188 0.13281-0.015625 0.26953-0.039062 0.40234-0.0625 0.09375-0.042969 0.1875-0.082031 0.27734-0.12891 0.13672-0.046875 0.27344-0.09375 0.40625-0.14844 0.39844-0.125 0.78906-0.27734 1.1719-0.44531 0.21484-0.10938 0.42969-0.22266 0.64062-0.34375 0.15625-0.09375 0.3125-0.19531 0.46875-0.29688 0.035156-0.027344 0.070313-0.058594 0.10547-0.085938 0.21484-0.11328 0.42969-0.23437 0.63672-0.36328l43.637-32.727c2.3203-1.7344 3.8516-4.3164 4.2656-7.1836 0.41016-2.8633-0.33203-5.7773-2.0703-8.0938-1.7344-2.3164-4.3164-3.8516-7.1836-4.2617-2.8633-0.41016-5.7773 0.33203-8.0938 2.0664l-26.188 19.645v-76.363l0.003906 0.003907c0-2.8945-1.1523-5.668-3.1953-7.7148-2.0469-2.0469-4.8203-3.1953-7.7148-3.1953zm-87.273 141.82c-17.945 0-32.727 14.781-32.727 32.727v174.55c0 17.949 14.785 32.727 32.727 32.727h174.55c17.941 0 32.727-14.781 32.727-32.727v-174.55c0-17.945-14.781-32.727-32.727-32.727zm0 21.816h76.363v87.273h-87.273v-76.363c0-6.1562 4.7539-10.91 10.91-10.91zm98.184 0h76.363c6.1562 0 10.91 4.7539 10.91 10.91v76.363h-87.273zm-109.09 109.09h87.273v87.273h-76.363c-6.1562 0-10.91-4.7461-10.91-10.91zm109.09 0h87.273v76.363c0 6.1602-4.75 10.91-10.91 10.91h-76.363z"/>
</svg>
