<?xml version="1.0" encoding="UTF-8" standalone="no"?>
<!-- Created with Inkscape (http://www.inkscape.org/) -->

<svg
   version="1.1"
   id="svg1"
   width="327.67999"
   height="327.67999"
   viewBox="0 0 327.67999 327.67999"
   sodipodi:docname="icon.svg"
   inkscape:version="1.4.2 (ebf0e940, 2025-05-08)"
   xmlns:inkscape="http://www.inkscape.org/namespaces/inkscape"
   xmlns:sodipodi="http://sodipodi.sourceforge.net/DTD/sodipodi-0.dtd"
   xmlns="http://www.w3.org/2000/svg"
   xmlns:svg="http://www.w3.org/2000/svg">
  <defs
     id="defs1" />
  <sodipodi:namedview
     id="namedview1"
     pagecolor="#ffffff"
     bordercolor="#000000"
     borderopacity="0.25"
     inkscape:showpageshadow="2"
     inkscape:pageopacity="0.0"
     inkscape:pagecheckerboard="0"
     inkscape:deskcolor="#d1d1d1"
     inkscape:zoom="1.2973201"
     inkscape:cx="184.22593"
     inkscape:cy="150.30986"
     inkscape:window-width="1440"
     inkscape:window-height="847"
     inkscape:window-x="0"
     inkscape:window-y="25"
     inkscape:window-maximized="0"
     inkscape:current-layer="g1" />
  <g
     inkscape:groupmode="layer"
     inkscape:label="Image"
     id="g1">
    <g
       id="g6"
       transform="translate(-2.962582,0.75563477)">
      <path
         style="fill:#9262f3"
         d="m 99.359998,300.61069 c -1.232,-0.25569 -3.604871,-1.13228 -5.273046,-1.94798 -2.487173,-1.21617 -3.503034,-1.95308 -5.644453,-4.0945 -2.164677,-2.16468 -2.859284,-3.12776 -4.06039,-5.62981 -0.79694,-1.66012 -1.544377,-3.48641 -1.660972,-4.05841 -0.300654,-1.47497 -0.667382,-1.2937 -1.294823,0.64 -1.761285,5.4281 -6.083834,10.55314 -10.934515,12.96455 -4.390206,2.18249 -5.854388,2.37232 -17.40137,2.2561 -9.982046,-0.10047 -10.0664,-0.10699 -12.397503,-0.95825 -3.45492,-1.26165 -5.682138,-2.69234 -8.379,-5.3824 -1.72124,-1.71689 -2.781047,-3.12864 -3.723496,-4.96 -2.0821,-4.04591 -2.496812,-5.78569 -2.479049,-10.4 0.01326,-3.44469 0.133183,-4.35539 0.863821,-6.56 2.549972,-7.6942 8.539865,-13.03216 16.544797,-14.74406 3.144471,-0.67247 18.44722,-0.63137 21.53683,0.0578 5.043036,1.12496 10.000144,4.27138 12.868835,8.16822 1.551054,2.10696 3.10192,5.19222 3.669485,7.3 0.440161,1.63463 0.628018,1.48537 1.588344,-1.262 2.015915,-5.76726 5.808663,-10.00441 11.343963,-12.67317 4.474496,-2.1573 2.662422,-2.07711 44.672544,-1.9771 l 37.92,0.0903 2.34717,0.85741 c 3.43199,1.25369 5.65293,2.68128 8.37382,5.38259 2.70112,2.68168 4.67984,6.05735 5.63168,9.60758 0.6738,2.51316 0.98625,2.94003 1.25801,1.71871 1.0424,-4.68461 2.83033,-7.94426 6.22023,-11.34035 2.19817,-2.20217 3.25823,-2.99045 5.44909,-4.05204 5.08107,-2.46204 2.81886,-2.33446 41.30044,-2.32917 38.38293,0.005 36.27787,-0.11125 41.23081,2.2825 2.16776,1.04768 3.22898,1.83872 5.45566,4.06673 5.07358,5.0766 7.26535,11.26757 6.41413,18.11766 -0.6412,5.15993 -2.57017,9.1123 -6.24595,12.79764 -2.60612,2.61289 -5.35419,4.31264 -8.9551,5.53893 l -2.56,0.87181 h -35.04 c -39.06595,0 -36.65173,0.12998 -41.43999,-2.23103 -5.76066,-2.84047 -9.99059,-8.09527 -11.54361,-14.3405 -0.297,-1.19434 -0.6032,-2.10832 -0.68046,-2.03107 -0.0773,0.0773 -0.35625,0.98245 -0.62,2.01154 -0.701,2.73521 -2.73451,6.72522 -4.49687,8.82342 -2.76563,3.29266 -6.11916,5.53212 -10.49906,7.0112 l -2.24,0.75644 -37.44,0.0578 c -31.66006,0.0489 -37.78581,-0.014 -39.680002,-0.40709 z m -57.37103,-58.37666 c -5.699787,-1.49334 -10.926833,-5.72002 -13.452612,-10.878 -1.779573,-3.63413 -2.326299,-5.90712 -2.346635,-9.75603 -0.05353,-10.13225 6.426687,-18.48366 16.274609,-20.97399 2.467215,-0.62391 3.733733,-0.6318 88.2594,-0.5495 l 85.75627,0.0835 2.08,0.74626 c 9.61606,3.45006 15.62713,12.28098 14.94443,21.95498 -0.53313,7.55449 -5.14073,14.48763 -11.79234,17.74417 -5.06642,2.48045 3.23819,2.27659 -91.93932,2.25696 -83.029473,-0.0171 -85.518875,-0.0349 -87.783802,-0.62834 z m 208.891022,0.14325 c -0.968,-0.25333 -2.984,-1.05786 -4.48,-1.78784 -5.13758,-2.5069 -9.51939,-7.93839 -11.05999,-13.70945 -0.73712,-2.76125 -0.75722,-7.80674 -0.0421,-10.55999 0.97183,-3.7414 2.97284,-7.24642 5.66331,-9.92 2.721,-2.70395 4.94458,-4.13256 8.37157,-5.37862 l 2.34717,-0.85344 15.03704,-0.0989 c 17.0568,-0.11225 17.71904,-0.0457 22.33476,2.24328 2.07297,1.02802 3.20337,1.8848 5.35078,4.05555 4.08783,4.13227 5.94736,8.25585 6.304,13.97939 0.62974,10.10624 -6.25326,19.51758 -16.11277,22.03146 -2.77912,0.7086 -31.00532,0.70743 -33.71381,-10e-4 z M 120.10871,185.28069 c -4.96269,-0.54188 -9.08096,-2.54856 -12.77685,-6.22569 -2.83449,-2.82011 -4.45008,-5.40356 -5.61262,-8.975 -0.44783,-1.37576 -0.77367,-1.99308 -0.84455,-1.6 -0.361,2.00195 -1.595666,4.92338 -2.940528,6.95777 -2.78706,4.21603 -6.467015,7.07498 -11.261451,8.74902 l -2.672713,0.93321 -19.271612,0.094 c -18.50845,0.0903 -19.381232,0.0679 -22.039753,-0.56344 -8.599719,-2.04243 -14.797291,-8.70707 -16.372106,-17.60596 -0.394828,-2.23108 -0.416911,-3.25819 -0.121916,-5.67046 1.061774,-8.68248 6.56998,-15.42144 14.925388,-18.26031 l 2.56,-0.86979 19.111186,-0.0961 c 18.343576,-0.0923 19.22224,-0.0697 21.876069,0.56055 5.364796,1.27414 10.144787,4.53717 13.051542,8.90955 1.477673,2.22274 2.616614,4.75794 3.028834,6.74195 0.23294,1.12114 0.24969,1.09815 1.26211,-1.73215 1.91929,-5.3655 5.82652,-9.86506 10.67267,-12.29064 4.67829,-2.34156 3.90251,-2.29144 33.87759,-2.18873 26.66114,0.0914 26.72458,0.0931 28.8,0.80307 6.2612,2.14184 11.84837,7.67312 13.74597,13.60848 0.21101,0.66 0.48817,1.2 0.61589,1.2 0.12773,0 0.69029,-1.116 1.25013,-2.48 2.53548,-6.17745 7.95612,-10.86083 14.78801,-12.77671 1.95825,-0.54915 4.26207,-0.58329 39.35999,-0.58329 34.54268,0 37.43273,0.0412 39.36,0.56163 6.33356,1.71017 11.51052,5.89596 14.1736,11.45996 0.79458,1.66012 1.63676,3.81041 1.87152,4.77841 0.60561,2.49721 0.51303,8.0094 -0.17737,10.56 -1.6178,5.9768 -5.9617,11.24658 -11.4264,13.86189 -1.65074,0.79001 -3.79335,1.63027 -4.76135,1.86725 -1.42445,0.34871 -8.92852,0.43086 -39.36,0.43086 H 207.2 l -2.56675,-0.87079 c -6.40738,-2.17373 -11.47264,-6.85953 -13.78435,-12.75169 -0.79137,-2.01708 -1.4089,-2.82018 -1.4089,-1.83228 0,0.21188 -0.664,1.75016 -1.47555,3.4184 -2.0182,4.14865 -5.44734,7.64032 -9.40842,9.58 -5.20754,2.55004 -3.5497,2.41857 -31.35603,2.48658 -13.64,0.0334 -25.83108,-0.0519 -27.09129,-0.18953 z M 42.533238,127.19285 c -11.06662,-2.68701 -18.369226,-14.0418 -16.158607,-25.12496 1.6722,-8.383739 7.839899,-14.932843 16.185368,-17.186258 1.93066,-0.52131 4.928944,-0.561634 41.759999,-0.561634 44.594382,0 41.160172,-0.180453 46.560002,2.446537 2.20686,1.07363 3.23362,1.843024 5.44257,4.078365 2.9482,2.983416 4.25934,5.122053 5.4656,8.915098 0.40579,1.276002 0.82985,2.320002 0.94235,2.320002 0.1125,0 0.45426,-0.89818 0.75947,-1.99594 1.60735,-5.781343 5.68673,-10.640644 11.23001,-13.37706 4.59732,-2.269448 4.56384,-2.26625 22.62206,-2.160909 l 16.09794,0.09391 2.34707,0.857349 c 3.39123,1.238763 5.64656,2.677771 8.20218,5.233395 2.64687,2.64687 4.1715,5.090841 5.33561,8.552981 0.46468,1.381964 0.9169,2.584704 1.00494,2.672744 0.088,0.088 0.52973,-0.93936 0.98152,-2.283101 1.22408,-3.640694 2.92594,-6.424059 5.46876,-8.944029 3.70411,-3.670833 7.61928,-5.565721 12.97991,-6.282102 1.49156,-0.199326 11.90844,-0.280518 27.52,-0.214498 22.87645,0.09674 25.29149,0.156687 27.04,0.671172 9.76798,2.874132 15.85312,10.272875 16.38785,19.925508 0.22518,4.06471 -0.41199,7.22639 -2.21653,10.99859 -1.79063,3.74314 -5.64403,7.63343 -9.43952,9.52988 -4.8409,2.4188 -3.88895,2.35663 -34.4918,2.25257 l -27.2,-0.0925 -2.08,-0.74261 c -3.19179,-1.13955 -6.34752,-3.1436 -8.63999,-5.48685 -2.54243,-2.59873 -4.05388,-5.07916 -5.16191,-8.47119 -0.46304,-1.41753 -0.93752,-2.57732 -1.05439,-2.57732 -0.11688,0 -0.60202,1.15851 -1.0781,2.57447 -1.18832,3.53429 -2.70069,5.96523 -5.37139,8.63381 -2.66017,2.65806 -6.17615,4.6408 -9.93365,5.6018 -2.27892,0.58285 -3.59098,0.62992 -17.56056,0.62992 -17.02606,0 -17.76553,-0.0815 -22.33616,-2.46196 -3.49132,-1.81833 -7.42979,-5.87197 -9.12325,-9.39003 -0.71694,-1.48941 -1.47296,-3.39201 -1.68005,-4.22801 -0.20709,-0.836 -0.47713,-1.52 -0.60009,-1.52 -0.12297,0 -0.47829,0.828 -0.78962,1.84 -1.21401,3.94632 -2.74229,6.49437 -5.61944,9.36908 -3.13363,3.13098 -5.91494,4.7646 -9.80643,5.75988 -2.39374,0.61221 -3.65663,0.63024 -42.33615,0.60438 -32.39091,-0.0217 -40.203941,-0.10803 -41.655572,-0.46049 z M 41.599999,69.330032 c -3.827224,-1.141269 -6.253001,-2.613792 -9.317936,-5.656278 -4.420821,-4.388441 -6.347865,-9.094863 -6.357334,-15.526523 -0.0055,-3.723943 0.509412,-6.039057 2.087044,-9.38395 2.740564,-5.810542 7.741524,-9.950064 14.228226,-11.777351 1.988287,-0.560095 5.289963,-0.585931 74.880001,-0.585931 69.59003,0 72.89171,0.02584 74.88,0.585931 6.4674,1.82185 11.47329,5.992519 14.27598,11.894069 1.527,3.215344 2.04473,5.568119 2.03929,9.267232 -0.006,4.006324 -0.60222,6.609478 -2.31202,10.092768 -1.06541,2.17051 -1.88746,3.271324 -4.06919,5.449083 -3.07653,3.070924 -5.73231,4.653719 -9.61286,5.729073 -2.38329,0.660445 -2.54252,0.661807 -75.35477,0.644697 l -72.966431,-0.01715 z m 186.079991,0.527257 c -8.65363,-1.250344 -16.07556,-7.797808 -18.29677,-16.141018 -0.86995,-3.267665 -0.72232,-8.73914 0.3226,-11.956272 1.9408,-5.975374 5.96216,-10.53808 11.57418,-13.132252 4.5444,-2.100668 4.01429,-2.067986 33.50316,-2.065506 25.43941,0.0021 26.77726,0.03111 29.29374,0.63442 10.24705,2.456649 17.2111,11.70731 16.6247,22.083338 -0.54639,9.668071 -6.59932,17.219779 -16.06161,20.038647 -1.77134,0.527692 -4.01363,0.576058 -28.96,0.624665 -14.872,0.02898 -27.472,-0.0097 -28,-0.08602 z"
         id="path12" />
      <path
         style="fill:#fac608"
         d="m 43.359999,300.34262 c -8.167338,-1.8336 -14.662755,-8.13327 -16.674681,-16.17216 -0.779924,-3.11628 -0.47819,-8.99754 0.621081,-12.10582 2.222163,-6.28335 6.720075,-10.83556 13.139171,-13.29778 l 2.594429,-0.99516 10.10403,-0.10582 c 11.533411,-0.1208 12.693097,0.0286 17.221116,2.21785 3.65129,1.76539 7.346949,5.40168 9.22444,9.07626 1.481792,2.90013 2.330413,5.50821 2.330413,7.16208 0,1.70428 0.536491,0.86502 1.263072,-1.97589 1.636509,-6.39869 5.630882,-11.36234 11.376928,-14.13767 4.55958,-2.20228 2.185861,-2.08852 43.578962,-2.08852 41.72629,0 38.94014,-0.14533 43.94104,2.29208 3.98577,1.94264 7.37972,5.39878 9.37611,9.54792 0.80449,1.672 1.63452,3.939 1.8445,5.03778 0.53727,2.81141 0.22701,8.34793 -0.6143,10.96222 -1.68061,5.22232 -5.69478,9.84939 -10.67902,12.3095 -5.09974,2.51713 -2.93522,2.3987 -43.95611,2.40495 -35.45668,0.005 -36.58175,-0.0129 -39.039994,-0.63421 -4.252119,-1.07472 -6.951705,-2.61277 -10.089124,-5.74811 -2.249668,-2.24818 -2.995258,-3.25517 -4.045683,-5.46412 -0.70826,-1.4894 -1.534701,-3.75201 -1.836534,-5.02801 -0.553869,-2.34148 -1.116641,-3.0627 -1.123645,-1.44 -0.01072,2.48275 -1.913218,7.06351 -4.229928,10.18464 -2.468375,3.32546 -6.214791,5.93375 -10.646273,7.41204 -2.518185,0.84003 -2.716808,0.85531 -12.16,0.93549 -7.139627,0.0606 -10.092075,-0.029 -11.52,-0.34954 z M 212.48,300.00524 c -3.10718,-0.63397 -5.52422,-1.6434 -8.16618,-3.41045 -3.7265,-2.49244 -6.40421,-5.95064 -8.08182,-10.4375 -1.07275,-2.86912 -1.35409,-8.72652 -0.57817,-12.03751 1.34323,-5.73187 5.85857,-11.37998 11.14209,-13.93736 4.84046,-2.34291 3.16933,-2.25122 41.04407,-2.25214 37.77218,-9.2e-4 35.84008,-0.10621 40.64306,2.21489 5.42322,2.62084 9.83263,8.0719 11.19132,13.83508 0.62476,2.65004 0.62134,7.91953 -0.007,10.35251 -1.88738,7.31141 -7.02991,12.63675 -14.70767,15.2305 l -2.24,0.75673 -34.08,0.0548 c -27.22088,0.0438 -34.49863,-0.0306 -36.15999,-0.36957 z M 41.988968,242.23403 c -5.699787,-1.49334 -10.926833,-5.72002 -13.452612,-10.878 -1.779573,-3.63413 -2.326299,-5.90712 -2.346635,-9.75603 -0.05353,-10.13225 6.426687,-18.48366 16.274609,-20.97399 2.467215,-0.62391 3.733733,-0.6318 88.2594,-0.5495 l 85.75627,0.0835 2.08,0.74626 c 9.61606,3.45006 15.62713,12.28098 14.94443,21.95498 -0.53313,7.55449 -5.14073,14.48763 -11.79234,17.74417 -5.06642,2.48045 3.23819,2.27659 -91.93932,2.25696 -83.029473,-0.0171 -85.518875,-0.0349 -87.783802,-0.62834 z m 208.891022,0.14325 c -0.968,-0.25333 -2.984,-1.05786 -4.48,-1.78784 -5.13758,-2.5069 -9.51939,-7.93839 -11.05999,-13.70945 -0.73712,-2.76125 -0.75722,-7.80674 -0.0421,-10.55999 0.97183,-3.7414 2.97284,-7.24642 5.66331,-9.92 2.721,-2.70395 4.94458,-4.13256 8.37157,-5.37862 l 2.34717,-0.85344 15.03704,-0.0989 c 17.0568,-0.11225 17.71904,-0.0457 22.33476,2.24328 2.07297,1.02802 3.20337,1.8848 5.35078,4.05555 4.08783,4.13227 5.94736,8.25585 6.304,13.97939 0.62974,10.10624 -6.25326,19.51758 -16.11277,22.03146 -2.77912,0.7086 -31.00532,0.70743 -33.71381,-10e-4 z M 42.444529,184.62264 c -8.418703,-2.09181 -14.574823,-8.80142 -16.128002,-17.57805 -0.394828,-2.23108 -0.416911,-3.25819 -0.121916,-5.67046 1.061774,-8.68248 6.56998,-15.42144 14.925388,-18.26031 l 2.56,-0.86979 19.111186,-0.0961 c 18.343576,-0.0923 19.22224,-0.0697 21.876069,0.56055 7.078485,1.68114 12.859772,6.69973 15.362776,13.33604 0.76854,2.03766 0.82851,2.57883 0.83416,7.52828 0.005,4.6292 -0.0856,5.6083 -0.6888,7.42094 -1.952043,5.8659 -7.193504,10.99111 -13.487007,13.18788 l -2.688385,0.93839 -19.519999,0.0638 c -18.414153,0.0602 -19.662506,0.0284 -22.03547,-0.56119 z M 121.92,184.59738 c -2.7507,-0.13933 -4.55194,-0.40097 -5.76719,-0.83771 -5.69573,-2.04695 -9.76089,-5.57224 -12.3467,-10.70697 -2.688,-5.33765 -2.85313,-12.40858 -0.41579,-17.80353 2.70304,-5.98305 7.95422,-10.41281 14.25587,-12.02588 2.89615,-0.74134 53.04856,-0.75937 55.96657,-0.0201 7.03595,1.78249 12.72383,7.15779 15.16099,14.3278 0.31203,0.91796 0.74381,1.66902 0.95952,1.66902 0.2157,0 0.85816,-1.23876 1.42768,-2.75279 2.75935,-7.33557 9.13878,-12.53251 16.83905,-13.71775 1.73828,-0.26756 12.41398,-0.34185 38.71999,-0.26944 l 36.32,0.1 2.56,0.90354 c 3.7417,1.32062 5.78192,2.59516 8.50721,5.31453 4.30579,4.29643 6.20862,8.86361 6.20862,14.90193 0,5.86643 -1.73695,10.22769 -5.78608,14.52808 -2.62213,2.78485 -5.24595,4.46558 -8.92975,5.7201 l -2.56,0.87182 h -37.92 H 207.2 l -2.56,-0.90355 c -3.44232,-1.21494 -5.59124,-2.49081 -8.01666,-4.75968 -2.58155,-2.41491 -4.18104,-4.82796 -5.473,-8.25677 -0.56368,-1.496 -1.19404,-2.72 -1.4008,-2.72 -0.20675,0 -0.77191,1.08616 -1.2559,2.41369 -1.98195,5.43625 -5.67434,9.56191 -10.73364,11.99313 -1.584,0.76119 -3.744,1.56049 -4.8,1.77624 -2.09795,0.42862 -43.5239,0.63504 -51.04,0.25432 z M 42.533238,127.19285 c -11.06662,-2.68701 -18.369226,-14.0418 -16.158607,-25.12496 1.6722,-8.383739 7.839899,-14.932843 16.185368,-17.186258 1.93066,-0.52131 4.928944,-0.561634 41.759999,-0.561634 44.594382,0 41.160172,-0.180453 46.560002,2.446537 2.20686,1.07363 3.23362,1.843024 5.44257,4.078365 2.9482,2.983416 4.25934,5.122053 5.4656,8.915098 0.40579,1.276002 0.82985,2.320002 0.94235,2.320002 0.1125,0 0.45426,-0.89818 0.75947,-1.99594 1.60735,-5.781343 5.68673,-10.640644 11.23001,-13.37706 4.59732,-2.269448 4.56384,-2.26625 22.62206,-2.160909 l 16.09794,0.09391 2.34707,0.857349 c 3.39123,1.238763 5.64656,2.677771 8.20218,5.233395 2.64687,2.64687 4.1715,5.090841 5.33561,8.552981 0.46468,1.381964 0.9169,2.584704 1.00494,2.672744 0.088,0.088 0.52973,-0.93936 0.98152,-2.283101 1.22408,-3.640694 2.92594,-6.424059 5.46876,-8.944029 3.70411,-3.670833 7.61928,-5.565721 12.97991,-6.282102 1.49156,-0.199326 11.90844,-0.280518 27.52,-0.214498 22.87645,0.09674 25.29149,0.156687 27.04,0.671172 9.76798,2.874132 15.85312,10.272875 16.38785,19.925508 0.22518,4.06471 -0.41199,7.22639 -2.21653,10.99859 -1.79063,3.74314 -5.64403,7.63343 -9.43952,9.52988 -4.8409,2.4188 -3.88895,2.35663 -34.4918,2.25257 l -27.2,-0.0925 -2.08,-0.74261 c -3.19179,-1.13955 -6.34752,-3.1436 -8.63999,-5.48685 -2.54243,-2.59873 -4.05388,-5.07916 -5.16191,-8.47119 -0.46304,-1.41753 -0.93752,-2.57732 -1.05439,-2.57732 -0.11688,0 -0.60202,1.15851 -1.0781,2.57447 -1.18832,3.53429 -2.70069,5.96523 -5.37139,8.63381 -2.66017,2.65806 -6.17615,4.6408 -9.93365,5.6018 -2.27892,0.58285 -3.59098,0.62992 -17.56056,0.62992 -17.02606,0 -17.76553,-0.0815 -22.33616,-2.46196 -3.49132,-1.81833 -7.42979,-5.87197 -9.12325,-9.39003 -0.71694,-1.48941 -1.47296,-3.39201 -1.68005,-4.22801 -0.20709,-0.836 -0.47713,-1.52 -0.60009,-1.52 -0.12297,0 -0.47829,0.828 -0.78962,1.84 -1.21401,3.94632 -2.74229,6.49437 -5.61944,9.36908 -3.13363,3.13098 -5.91494,4.7646 -9.80643,5.75988 -2.39374,0.61221 -3.65663,0.63024 -42.33615,0.60438 -32.39091,-0.0217 -40.203941,-0.10803 -41.655572,-0.46049 z M 227.67999,69.857289 c -8.65363,-1.250344 -16.07556,-7.797808 -18.29677,-16.141018 -0.86995,-3.267665 -0.72232,-8.73914 0.3226,-11.956272 1.9408,-5.975374 5.96216,-10.53808 11.57418,-13.132252 4.5444,-2.100668 4.01429,-2.067986 33.50316,-2.065506 25.43941,0.0021 26.77726,0.03111 29.29374,0.63442 10.24705,2.456649 17.2111,11.70731 16.6247,22.083338 -0.54639,9.668071 -6.59932,17.219779 -16.06161,20.038647 -1.77134,0.527692 -4.01363,0.576058 -28.96,0.624665 -14.872,0.02898 -27.472,-0.0097 -28,-0.08602 z M 45.119999,69.430304 C 37.142246,68.488383 30.255772,62.876397 27.46164,55.039999 c -0.652856,-1.830997 -0.740277,-2.654623 -0.730253,-6.88 0.01039,-4.378509 0.08409,-4.989434 0.839302,-6.957296 2.699858,-7.035025 8.240387,-11.971545 15.34895,-13.675664 2.642382,-0.633451 3.69283,-0.642588 74.137191,-0.644798 80.16835,-0.0025 73.52335,-0.206765 79.01675,2.428764 4.82584,2.31526 8.49801,6.435609 10.59822,11.891698 0.76044,1.975552 0.83064,2.561678 0.83316,6.957296 0.002,4.195503 -0.0899,5.061948 -0.73274,6.88 -2.83756,8.024597 -9.64176,13.444323 -18.09985,14.417016 -3.12219,0.359055 -140.501562,0.333493 -143.552371,-0.02671 z"
         id="path11" />
      <path
         style="fill:#fd8100"
         d="m 43.359999,300.34262 c -8.167338,-1.8336 -14.662755,-8.13327 -16.674681,-16.17216 -0.779924,-3.11628 -0.47819,-8.99754 0.621081,-12.10582 2.222163,-6.28335 6.720075,-10.83556 13.139171,-13.29778 l 2.594429,-0.99516 10.10403,-0.10582 c 11.533411,-0.1208 12.693097,0.0286 17.221116,2.21785 3.65129,1.76539 7.346949,5.40168 9.22444,9.07626 1.481792,2.90013 2.330413,5.50821 2.330413,7.16208 0,1.70428 0.536491,0.86502 1.263072,-1.97589 1.636509,-6.39869 5.630882,-11.36234 11.376928,-14.13767 4.55958,-2.20228 2.185861,-2.08852 43.578962,-2.08852 41.72629,0 38.94014,-0.14533 43.94104,2.29208 3.98577,1.94264 7.37972,5.39878 9.37611,9.54792 0.80449,1.672 1.63452,3.939 1.8445,5.03778 0.53727,2.81141 0.22701,8.34793 -0.6143,10.96222 -1.68061,5.22232 -5.69478,9.84939 -10.67902,12.3095 -5.09974,2.51713 -2.93522,2.3987 -43.95611,2.40495 -35.45668,0.005 -36.58175,-0.0129 -39.039994,-0.63421 -4.252119,-1.07472 -6.951705,-2.61277 -10.089124,-5.74811 -2.249668,-2.24818 -2.995258,-3.25517 -4.045683,-5.46412 -0.70826,-1.4894 -1.534701,-3.75201 -1.836534,-5.02801 -0.553869,-2.34148 -1.116641,-3.0627 -1.123645,-1.44 -0.01072,2.48275 -1.913218,7.06351 -4.229928,10.18464 -2.468375,3.32546 -6.214791,5.93375 -10.646273,7.41204 -2.518185,0.84003 -2.716808,0.85531 -12.16,0.93549 -7.139627,0.0606 -10.092075,-0.029 -11.52,-0.34954 z M 212.48,300.00524 c -3.10718,-0.63397 -5.52422,-1.6434 -8.16618,-3.41045 -3.7265,-2.49244 -6.40421,-5.95064 -8.08182,-10.4375 -1.07275,-2.86912 -1.35409,-8.72652 -0.57817,-12.03751 1.34323,-5.73187 5.85857,-11.37998 11.14209,-13.93736 4.84046,-2.34291 3.16933,-2.25122 41.04407,-2.25214 37.77218,-9.2e-4 35.84008,-0.10621 40.64306,2.21489 5.42322,2.62084 9.83263,8.0719 11.19132,13.83508 0.62476,2.65004 0.62134,7.91953 -0.007,10.35251 -1.88738,7.31141 -7.02991,12.63675 -14.70767,15.2305 l -2.24,0.75673 -34.08,0.0548 c -27.22088,0.0438 -34.49863,-0.0306 -36.15999,-0.36957 z M 41.988968,242.23403 c -5.699787,-1.49334 -10.926833,-5.72002 -13.452612,-10.878 -1.779573,-3.63413 -2.326299,-5.90712 -2.346635,-9.75603 -0.05353,-10.13225 6.426687,-18.48366 16.274609,-20.97399 2.467215,-0.62391 3.733733,-0.6318 88.2594,-0.5495 l 85.75627,0.0835 2.08,0.74626 c 9.61606,3.45006 15.62713,12.28098 14.94443,21.95498 -0.53313,7.55449 -5.14073,14.48763 -11.79234,17.74417 -5.06642,2.48045 3.23819,2.27659 -91.93932,2.25696 -83.029473,-0.0171 -85.518875,-0.0349 -87.783802,-0.62834 z M 121.92,184.59738 c -2.7507,-0.13933 -4.55194,-0.40097 -5.76719,-0.83771 -5.69573,-2.04695 -9.76089,-5.57224 -12.3467,-10.70697 -2.688,-5.33765 -2.85313,-12.40858 -0.41579,-17.80353 2.70304,-5.98305 7.95422,-10.41281 14.25587,-12.02588 2.89615,-0.74134 53.04856,-0.75937 55.96657,-0.0201 7.03595,1.78249 12.72383,7.15779 15.16099,14.3278 0.31203,0.91796 0.74381,1.66902 0.95952,1.66902 0.2157,0 0.85816,-1.23876 1.42768,-2.75279 2.75935,-7.33557 9.13878,-12.53251 16.83905,-13.71775 1.73828,-0.26756 12.41398,-0.34185 38.71999,-0.26944 l 36.32,0.1 2.56,0.90354 c 3.7417,1.32062 5.78192,2.59516 8.50721,5.31453 4.30579,4.29643 6.20862,8.86361 6.20862,14.90193 0,5.86643 -1.73695,10.22769 -5.78608,14.52808 -2.62213,2.78485 -5.24595,4.46558 -8.92975,5.7201 l -2.56,0.87182 h -37.92 H 207.2 l -2.56,-0.90355 c -3.44232,-1.21494 -5.59124,-2.49081 -8.01666,-4.75968 -2.58155,-2.41491 -4.18104,-4.82796 -5.473,-8.25677 -0.56368,-1.496 -1.19404,-2.72 -1.4008,-2.72 -0.20675,0 -0.77191,1.08616 -1.2559,2.41369 -1.98195,5.43625 -5.67434,9.56191 -10.73364,11.99313 -1.584,0.76119 -3.744,1.56049 -4.8,1.77624 -2.09795,0.42862 -43.5239,0.63504 -51.04,0.25432 z m 36.86897,-57.56335 c -3.7776,-0.98973 -6.58653,-2.65564 -9.70691,-5.75694 -2.24641,-2.23268 -2.99881,-3.24334 -4.05661,-5.44908 -1.86379,-3.88638 -2.11673,-5.04751 -2.12347,-9.74801 -0.007,-4.68904 0.41677,-6.589065 2.24859,-10.088133 2.16697,-4.139271 5.29612,-7.175369 9.56943,-9.284867 4.59732,-2.269448 4.56384,-2.26625 22.62206,-2.160909 l 16.09794,0.09391 2.34707,0.857349 c 3.38601,1.236855 5.64385,2.675864 8.20218,5.227558 2.6462,2.63934 4.36265,5.435119 5.45893,8.891612 0.66558,2.09851 0.79182,3.12895 0.79182,6.46348 0,3.33453 -0.12624,4.36497 -0.79182,6.46348 -2.27589,7.17571 -8.0685,12.62957 -15.40762,14.5066 -2.28587,0.58463 -3.5578,0.62865 -17.69175,0.6123 -13.92359,-0.0161 -15.4286,-0.07 -17.55984,-0.62835 z M 42.722184,126.84308 c -5.819415,-1.40673 -11.292053,-5.75105 -13.865828,-11.00705 -1.778683,-3.63231 -2.296357,-5.85092 -2.296357,-9.84156 0,-4.09974 0.324887,-5.50814 2.157879,-9.354472 2.633754,-5.52665 7.706241,-9.671627 13.717155,-11.20896 2.390337,-0.611345 3.702046,-0.63104 42.028922,-0.63104 43.730865,0 41.037885,-0.122497 45.705985,2.07906 5.97822,2.819424 9.86007,7.63612 11.58273,14.372132 1.21055,4.73351 0.60285,9.65428 -1.80168,14.58881 -0.89524,1.83718 -1.81456,3.04156 -3.92024,5.13582 -3.14987,3.13277 -5.91844,4.75381 -9.82579,5.75314 -2.39324,0.61209 -3.65509,0.63024 -42.01615,0.60438 -33.370353,-0.0225 -39.848419,-0.0991 -41.466626,-0.49026 z m 185.274576,0.19165 c -4.23405,-0.84187 -7.71512,-2.7629 -11.05,-6.09797 -1.84412,-1.84422 -2.74123,-3.06761 -3.7545,-5.12 -1.50263,-3.04359 -2.62708,-7.2762 -2.62922,-9.89676 -0.002,-2.4014 1.35728,-7.286471 2.79459,-10.043703 1.73614,-3.330492 5.53362,-7.044151 8.95056,-8.753002 4.83674,-2.418906 3.90565,-2.357755 34.3318,-2.254797 l 27.04,0.0915 2.59443,1.001016 c 6.56853,2.534351 10.96084,7.116292 13.1512,13.718984 0.72959,2.199312 0.84925,3.101032 0.84925,6.400002 0,3.29297 -0.12053,4.20468 -0.8461,6.4 -2.38884,7.22786 -7.89422,12.39482 -15.19656,14.26245 -2.29499,0.58696 -3.71578,0.61581 -28.6834,0.58249 -14.44785,-0.0193 -26.84627,-0.14988 -27.55205,-0.29021 z M 45.119999,69.430304 C 37.142246,68.488383 30.255772,62.876397 27.46164,55.039999 c -0.652856,-1.830997 -0.740277,-2.654623 -0.730253,-6.88 0.01039,-4.378509 0.08409,-4.989434 0.839302,-6.957296 2.699858,-7.035025 8.240387,-11.971545 15.34895,-13.675664 2.642382,-0.633451 3.69283,-0.642588 74.137191,-0.644798 80.16835,-0.0025 73.52335,-0.206765 79.01675,2.428764 4.82584,2.31526 8.49801,6.435609 10.59822,11.891698 0.76044,1.975552 0.83064,2.561678 0.83316,6.957296 0.002,4.195503 -0.0899,5.061948 -0.73274,6.88 -2.83756,8.024597 -9.64176,13.444323 -18.09985,14.417016 -3.12219,0.359055 -140.501562,0.333493 -143.552371,-0.02671 z"
         id="path10" />
      <path
         style="fill:#5b11f0"
         d="m 43.359999,300.34262 c -8.167338,-1.8336 -14.662755,-8.13327 -16.674681,-16.17216 -0.779924,-3.11628 -0.47819,-8.99754 0.621081,-12.10582 2.222163,-6.28335 6.720075,-10.83556 13.139171,-13.29778 l 2.594429,-0.99516 10.10403,-0.10582 c 11.533411,-0.1208 12.693097,0.0286 17.221116,2.21785 3.65129,1.76539 7.346949,5.40168 9.22444,9.07626 1.481792,2.90013 2.330413,5.50821 2.330413,7.16208 0,1.70428 0.536491,0.86502 1.263072,-1.97589 1.636509,-6.39869 5.630882,-11.36234 11.376928,-14.13767 4.55958,-2.20228 2.185861,-2.08852 43.578962,-2.08852 41.72629,0 38.94014,-0.14533 43.94104,2.29208 3.98577,1.94264 7.37972,5.39878 9.37611,9.54792 0.80449,1.672 1.63452,3.939 1.8445,5.03778 0.53727,2.81141 0.22701,8.34793 -0.6143,10.96222 -1.68061,5.22232 -5.69478,9.84939 -10.67902,12.3095 -5.09974,2.51713 -2.93522,2.3987 -43.95611,2.40495 -35.45668,0.005 -36.58175,-0.0129 -39.039994,-0.63421 -4.252119,-1.07472 -6.951705,-2.61277 -10.089124,-5.74811 -2.249668,-2.24818 -2.995258,-3.25517 -4.045683,-5.46412 -0.70826,-1.4894 -1.534701,-3.75201 -1.836534,-5.02801 -0.553869,-2.34148 -1.116641,-3.0627 -1.123645,-1.44 -0.01072,2.48275 -1.913218,7.06351 -4.229928,10.18464 -2.468375,3.32546 -6.214791,5.93375 -10.646273,7.41204 -2.518185,0.84003 -2.716808,0.85531 -12.16,0.93549 -7.139627,0.0606 -10.092075,-0.029 -11.52,-0.34954 z M 212.48,300.00524 c -3.10718,-0.63397 -5.52422,-1.6434 -8.16618,-3.41045 -3.7265,-2.49244 -6.40421,-5.95064 -8.08182,-10.4375 -1.07275,-2.86912 -1.35409,-8.72652 -0.57817,-12.03751 1.34323,-5.73187 5.85857,-11.37998 11.14209,-13.93736 4.84046,-2.34291 3.16933,-2.25122 41.04407,-2.25214 37.77218,-9.2e-4 35.84008,-0.10621 40.64306,2.21489 5.42322,2.62084 9.83263,8.0719 11.19132,13.83508 0.62476,2.65004 0.62134,7.91953 -0.007,10.35251 -1.88738,7.31141 -7.02991,12.63675 -14.70767,15.2305 l -2.24,0.75673 -34.08,0.0548 c -27.22088,0.0438 -34.49863,-0.0306 -36.15999,-0.36957 z M 41.988968,242.23403 c -5.699787,-1.49334 -10.926833,-5.72002 -13.452612,-10.878 -1.779573,-3.63413 -2.326299,-5.90712 -2.346635,-9.75603 -0.05353,-10.13225 6.426687,-18.48366 16.274609,-20.97399 2.467215,-0.62391 3.733733,-0.6318 88.2594,-0.5495 l 85.75627,0.0835 2.08,0.74626 c 9.61606,3.45006 15.62713,12.28098 14.94443,21.95498 -0.53313,7.55449 -5.14073,14.48763 -11.79234,17.74417 -5.06642,2.48045 3.23819,2.27659 -91.93932,2.25696 -83.029473,-0.0171 -85.518875,-0.0349 -87.783802,-0.62834 z M 121.92,184.59738 c -2.7507,-0.13933 -4.55194,-0.40097 -5.76719,-0.83771 -5.69573,-2.04695 -9.76089,-5.57224 -12.3467,-10.70697 -2.688,-5.33765 -2.85313,-12.40858 -0.41579,-17.80353 2.70304,-5.98305 7.95422,-10.41281 14.25587,-12.02588 2.89615,-0.74134 53.04856,-0.75937 55.96657,-0.0201 7.03595,1.78249 12.72383,7.15779 15.16099,14.3278 0.31203,0.91796 0.74381,1.66902 0.95952,1.66902 0.2157,0 0.85816,-1.23876 1.42768,-2.75279 2.75935,-7.33557 9.13878,-12.53251 16.83905,-13.71775 1.73828,-0.26756 12.41398,-0.34185 38.71999,-0.26944 l 36.32,0.1 2.56,0.90354 c 3.7417,1.32062 5.78192,2.59516 8.50721,5.31453 4.30579,4.29643 6.20862,8.86361 6.20862,14.90193 0,5.86643 -1.73695,10.22769 -5.78608,14.52808 -2.62213,2.78485 -5.24595,4.46558 -8.92975,5.7201 l -2.56,0.87182 h -37.92 H 207.2 l -2.56,-0.90355 c -3.44232,-1.21494 -5.59124,-2.49081 -8.01666,-4.75968 -2.58155,-2.41491 -4.18104,-4.82796 -5.473,-8.25677 -0.56368,-1.496 -1.19404,-2.72 -1.4008,-2.72 -0.20675,0 -0.77191,1.08616 -1.2559,2.41369 -1.98195,5.43625 -5.67434,9.56191 -10.73364,11.99313 -1.584,0.76119 -3.744,1.56049 -4.8,1.77624 -2.09795,0.42862 -43.5239,0.63504 -51.04,0.25432 z m 36.86897,-57.56335 c -3.7776,-0.98973 -6.58653,-2.65564 -9.70691,-5.75694 -2.24641,-2.23268 -2.99881,-3.24334 -4.05661,-5.44908 -1.86379,-3.88638 -2.11673,-5.04751 -2.12347,-9.74801 -0.007,-4.68904 0.41677,-6.589065 2.24859,-10.088133 2.16697,-4.139271 5.29612,-7.175369 9.56943,-9.284867 4.59732,-2.269448 4.56384,-2.26625 22.62206,-2.160909 l 16.09794,0.09391 2.34707,0.857349 c 3.38601,1.236855 5.64385,2.675864 8.20218,5.227558 2.6462,2.63934 4.36265,5.435119 5.45893,8.891612 0.66558,2.09851 0.79182,3.12895 0.79182,6.46348 0,3.33453 -0.12624,4.36497 -0.79182,6.46348 -2.27589,7.17571 -8.0685,12.62957 -15.40762,14.5066 -2.28587,0.58463 -3.5578,0.62865 -17.69175,0.6123 -13.92359,-0.0161 -15.4286,-0.07 -17.55984,-0.62835 z M 45.119999,69.430304 C 37.142246,68.488383 30.255772,62.876397 27.46164,55.039999 c -0.652856,-1.830997 -0.740277,-2.654623 -0.730253,-6.88 0.01039,-4.378509 0.08409,-4.989434 0.839302,-6.957296 2.699858,-7.035025 8.240387,-11.971545 15.34895,-13.675664 2.642382,-0.633451 3.69283,-0.642588 74.137191,-0.644798 80.16835,-0.0025 73.52335,-0.206765 79.01675,2.428764 4.82584,2.31526 8.49801,6.435609 10.59822,11.891698 0.76044,1.975552 0.83064,2.561678 0.83316,6.957296 0.002,4.195503 -0.0899,5.061948 -0.73274,6.88 -2.83756,8.024597 -9.64176,13.444323 -18.09985,14.417016 -3.12219,0.359055 -140.501562,0.333493 -143.552371,-0.02671 z"
         id="path9" />
      <path
         style="fill:#1426fd"
         d="m 43.359999,300.34262 c -8.167338,-1.8336 -14.662755,-8.13327 -16.674681,-16.17216 -0.779924,-3.11628 -0.47819,-8.99754 0.621081,-12.10582 2.222163,-6.28335 6.720075,-10.83556 13.139171,-13.29778 l 2.594429,-0.99516 10.10403,-0.10582 c 11.533411,-0.1208 12.693097,0.0286 17.221116,2.21785 5.054702,2.44393 9.384916,7.73095 11.102962,13.55626 0.705864,2.39335 0.798198,8.20076 0.17044,10.72 -1.009159,4.04983 -3.972728,8.96325 -6.807158,11.28585 -2.267997,1.85845 -5.043847,3.39428 -7.79139,4.31083 -2.518185,0.84003 -2.716808,0.85531 -12.16,0.93549 -7.139627,0.0606 -10.092075,-0.029 -11.52,-0.34954 z m 55.519999,-0.5192 c -4.146064,-1.07337 -6.857842,-2.63303 -9.944119,-5.71931 -2.066718,-2.06672 -3.036475,-3.33657 -3.928445,-5.14412 -1.738826,-3.52367 -2.119284,-5.31943 -2.123638,-10.02357 -0.0032,-3.50848 0.109498,-4.44108 0.777438,-6.43084 1.119767,-3.33573 2.850312,-6.11793 5.290527,-8.50559 2.467514,-2.41436 4.770174,-3.8605 8.061163,-5.06265 l 2.347074,-0.85735 38.052202,-0.0851 c 42.51238,-0.0951 39.64031,-0.23757 44.6678,2.21565 3.98657,1.9453 7.38052,5.402 9.37611,9.54947 0.80449,1.672 1.63452,3.939 1.8445,5.03778 0.53727,2.81141 0.22701,8.34793 -0.6143,10.96222 -1.68061,5.22232 -5.69478,9.84939 -10.67902,12.3095 -5.10473,2.51959 -2.91248,2.40088 -44.08729,2.38733 -35.2142,-0.0116 -36.7334,-0.0362 -39.040002,-0.6334 z m -56.89103,-57.58939 c -5.699787,-1.49334 -10.926833,-5.72002 -13.452612,-10.878 -1.779573,-3.63413 -2.326299,-5.90712 -2.346635,-9.75603 -0.05353,-10.13225 6.426687,-18.48366 16.274609,-20.97399 2.467215,-0.62391 3.733733,-0.6318 88.2594,-0.5495 l 85.75627,0.0835 2.08,0.74626 c 9.61606,3.45006 15.62713,12.28098 14.94443,21.95498 -0.53313,7.55449 -5.14073,14.48763 -11.79234,17.74417 -5.06642,2.48045 3.23819,2.27659 -91.93932,2.25696 -83.029473,-0.0171 -85.518875,-0.0349 -87.783802,-0.62834 z M 206.88,184.49426 c -4.47798,-0.98581 -8.213,-3.10104 -11.29678,-6.39761 -2.28445,-2.44208 -3.57984,-4.63251 -4.67968,-7.91308 -0.71015,-2.11819 -0.82354,-3.00831 -0.82354,-6.4646 0,-3.57046 0.10088,-4.3084 0.92381,-6.75731 2.52499,-7.51399 9.0957,-13.01614 16.99619,-14.2322 1.73828,-0.26756 12.41398,-0.34185 38.71999,-0.26944 l 36.32,0.1 2.56,0.90354 c 3.7417,1.32062 5.78192,2.59516 8.50721,5.31453 4.30579,4.29643 6.20862,8.86361 6.20862,14.90193 0,5.86643 -1.73695,10.22769 -5.78608,14.52808 -2.62213,2.78485 -5.24595,4.46558 -8.92975,5.7201 l -2.56,0.87182 -37.12,0.0585 c -29.74675,0.0469 -37.50137,-0.0255 -39.03999,-0.36421 z m -48.09103,-57.46023 c -3.7776,-0.98973 -6.58653,-2.65564 -9.70691,-5.75694 -2.24641,-2.23268 -2.99881,-3.24334 -4.05661,-5.44908 -1.86379,-3.88638 -2.11673,-5.04751 -2.12347,-9.74801 -0.007,-4.68904 0.41677,-6.589065 2.24859,-10.088133 2.16697,-4.139271 5.29612,-7.175369 9.56943,-9.284867 4.59732,-2.269448 4.56384,-2.26625 22.62206,-2.160909 l 16.09794,0.09391 2.34707,0.857349 c 3.38601,1.236855 5.64385,2.675864 8.20218,5.227558 2.6462,2.63934 4.36265,5.435119 5.45893,8.891612 0.66558,2.09851 0.79182,3.12895 0.79182,6.46348 0,3.33453 -0.12624,4.36497 -0.79182,6.46348 -2.27589,7.17571 -8.0685,12.62957 -15.40762,14.5066 -2.28587,0.58463 -3.5578,0.62865 -17.69175,0.6123 -13.92359,-0.0161 -15.4286,-0.07 -17.55984,-0.62835 z M 45.119999,69.430304 C 37.142246,68.488383 30.255772,62.876397 27.46164,55.039999 c -0.652856,-1.830997 -0.740277,-2.654623 -0.730253,-6.88 0.01039,-4.378509 0.08409,-4.989434 0.839302,-6.957296 2.699858,-7.035025 8.240387,-11.971545 15.34895,-13.675664 2.642382,-0.633451 3.69283,-0.642588 74.137191,-0.644798 80.16835,-0.0025 73.52335,-0.206765 79.01675,2.428764 4.82584,2.31526 8.49801,6.435609 10.59822,11.891698 0.76044,1.975552 0.83064,2.561678 0.83316,6.957296 0.002,4.195503 -0.0899,5.061948 -0.73274,6.88 -2.83756,8.024597 -9.64176,13.444323 -18.09985,14.417016 -3.12219,0.359055 -140.501562,0.333493 -143.552371,-0.02671 z"
         id="path8" />
      <path
         style="fill:#da1335"
         d="m 43.359999,300.34262 c -8.167338,-1.8336 -14.662755,-8.13327 -16.674681,-16.17216 -0.779924,-3.11628 -0.47819,-8.99754 0.621081,-12.10582 2.222163,-6.28335 6.720075,-10.83556 13.139171,-13.29778 l 2.594429,-0.99516 10.10403,-0.10582 c 11.533411,-0.1208 12.693097,0.0286 17.221116,2.21785 5.054702,2.44393 9.384916,7.73095 11.102962,13.55626 0.705864,2.39335 0.798198,8.20076 0.17044,10.72 -1.009159,4.04983 -3.972728,8.96325 -6.807158,11.28585 -2.267997,1.85845 -5.043847,3.39428 -7.79139,4.31083 -2.518185,0.84003 -2.716808,0.85531 -12.16,0.93549 -7.139627,0.0606 -10.092075,-0.029 -11.52,-0.34954 z m -1.371031,-58.10859 c -5.699787,-1.49334 -10.926833,-5.72002 -13.452612,-10.878 -1.779573,-3.63413 -2.326299,-5.90712 -2.346635,-9.75603 -0.05353,-10.13225 6.426687,-18.48366 16.274609,-20.97399 2.467215,-0.62391 3.733733,-0.6318 88.2594,-0.5495 l 85.75627,0.0835 2.08,0.74626 c 9.61606,3.45006 15.62713,12.28098 14.94443,21.95498 -0.53313,7.55449 -5.14073,14.48763 -11.79234,17.74417 -5.06642,2.48045 3.23819,2.27659 -91.93932,2.25696 -83.029473,-0.0171 -85.518875,-0.0349 -87.783802,-0.62834 z m 116.800002,-115.2 c -3.7776,-0.98973 -6.58653,-2.65564 -9.70691,-5.75694 -2.24641,-2.23268 -2.99881,-3.24334 -4.05661,-5.44908 -1.86379,-3.88638 -2.11673,-5.04751 -2.12347,-9.74801 -0.007,-4.68904 0.41677,-6.589065 2.24859,-10.088133 2.16697,-4.139271 5.29612,-7.175369 9.56943,-9.284867 4.59732,-2.269448 4.56384,-2.26625 22.62206,-2.160909 l 16.09794,0.09391 2.34707,0.857349 c 3.38601,1.236855 5.64385,2.675864 8.20218,5.227558 2.6462,2.63934 4.36265,5.435119 5.45893,8.891612 0.66558,2.09851 0.79182,3.12895 0.79182,6.46348 0,3.33453 -0.12624,4.36497 -0.79182,6.46348 -2.27589,7.17571 -8.0685,12.62957 -15.40762,14.5066 -2.28587,0.58463 -3.5578,0.62865 -17.69175,0.6123 -13.92359,-0.0161 -15.4286,-0.07 -17.55984,-0.62835 z"
         id="path7" />
      <path
         style="fill:#0ecd31"
         d="m 41.988968,242.23403 c -5.699787,-1.49334 -10.926833,-5.72002 -13.452612,-10.878 -1.779573,-3.63413 -2.326299,-5.90712 -2.346635,-9.75603 -0.05353,-10.13225 6.426687,-18.48366 16.274609,-20.97399 2.467215,-0.62391 3.733733,-0.6318 88.2594,-0.5495 l 85.75627,0.0835 2.08,0.74626 c 9.61606,3.45006 15.62713,12.28098 14.94443,21.95498 -0.53313,7.55449 -5.14073,14.48763 -11.79234,17.74417 -5.06642,2.48045 3.23819,2.27659 -91.93932,2.25696 -83.029473,-0.0171 -85.518875,-0.0349 -87.783802,-0.62834 z m 116.800002,-115.2 c -3.7776,-0.98973 -6.58653,-2.65564 -9.70691,-5.75694 -2.24641,-2.23268 -2.99881,-3.24334 -4.05661,-5.44908 -1.86379,-3.88638 -2.11673,-5.04751 -2.12347,-9.74801 -0.007,-4.68904 0.41677,-6.589065 2.24859,-10.088133 2.16697,-4.139271 5.29612,-7.175369 9.56943,-9.284867 4.59732,-2.269448 4.56384,-2.26625 22.62206,-2.160909 l 16.09794,0.09391 2.34707,0.857349 c 3.38601,1.236855 5.64385,2.675864 8.20218,5.227558 2.6462,2.63934 4.36265,5.435119 5.45893,8.891612 0.66558,2.09851 0.79182,3.12895 0.79182,6.46348 0,3.33453 -0.12624,4.36497 -0.79182,6.46348 -2.27589,7.17571 -8.0685,12.62957 -15.40762,14.5066 -2.28587,0.58463 -3.5578,0.62865 -17.69175,0.6123 -13.92359,-0.0161 -15.4286,-0.07 -17.55984,-0.62835 z"
         id="path6" />
    </g>
  </g>
</svg>
